# xmcd
#
# Track frame offsets:
# 150
# 20254
# 50674
# 84252
# 114495
# 139761
# 175690
# 195696
# 220253
# 249666
#
# Disc length: 3790 seconds
#
#
# Revision: 2
# Processed by: cddbd v1.5.1PL2 Copyright (c) Steve Scherf et al.
# Submitted via: FreeRIP 2.944 
#
DISCID=840ecc0a
DTITLE=Rigmor Gustafsson - Ballad Collection
DYEAR=2005
DGENRE=Jazz
TTITLE0=Rain
TTITLE1=Prelude to a kiss
TTITLE2=Love is a little late
TTITLE3=All the things you are
TTITLE4=Gelsomina
TTITLE5=Over the rainbow
TTITLE6=Winter poem
TTITLE7=Goodbye pork pie hat
TTITLE8=Very early
TTITLE9=Winter doesn't end
EXTD=The Prophone Years 1996 - 2000
EXTT0=
EXTT1=
EXTT2=
EXTT3=
EXTT4=
EXTT5=
EXTT6=
EXTT7=
EXTT8=
EXTT9=
PLAYORDER=
